<svg id="Layer_1_1_" enable-background="new 0 0 64 64" height="512" viewBox="0 0 64 64" width="512" xmlns="http://www.w3.org/2000/svg"><path d="m39 50.827c4.376-2.831 7.286-8.039 5.713-13.288-.546-1.822-1.552-3.47-2.614-5.048-1.145-1.701-2.373-3.357-3.301-5.185-2.067-4.074-2.072-9.665-1.334-14.089l.053-.316c.32-1.922.343-3.882.068-5.811-.336-2.347-2.346-4.09-4.716-4.09-2.254 0-4.2 1.581-4.662 3.787l-.207.992 2 8.221s0 3-2 6c-2.048 3.071-3.918 6.255-5.831 9.41-1.632 2.691-3.169 5.342-3.169 8.59 0 4.163 1.956 7.868 5 10.248l3 1.756c1.539.642 3.228.996 5 .996 1.353 0 2.706-.248 4-.699z" fill="#fff"/><g fill="#f29b20"><path d="m31 7.779-2 1-1-1-1 5-4 4c1.236 1.236 3.109 1.567 4.7.841.796-.363 1.622-.765 2.272-1.135.455-.259.826-.504 1.029-.706 1-1 2-3 2-3z"/><path d="m27 48v8l4 4-.704-.235c-1.407-.469-2.959-.103-4.008.946l-.288.289-.288-.288c-1.049-1.049-2.6-1.415-4.008-.946l-.704.234 3-4v-9"/><path d="m36 48v8l-4 4 .704-.235c1.407-.469 2.959-.103 4.008.946l.288.289.288-.288c1.049-1.049 2.6-1.415 4.008-.946l.704.234-3-4v-9"/></g><ellipse cx="35.5" cy="8" rx=".5" ry="1"/><path d="m45.671 37.252c-.591-1.973-1.667-3.722-2.742-5.319-.248-.368-.501-.735-.753-1.102-.919-1.339-1.788-2.603-2.486-3.978-2.367-4.669-1.655-10.977-1.239-13.473l.053-.316c.338-2.024.361-4.082.071-6.117-.404-2.82-2.856-4.947-5.706-4.947-2.713 0-5.085 1.927-5.641 4.583l-.207.991h.001c-.001.003-.002.005-.003.008l-.94 4.703-3.786 3.786c-.391.391-.391 1.023 0 1.414.987.987 2.32 1.511 3.671 1.511.729 0 1.464-.153 2.151-.467.181-.083.334-.156.497-.233-.263.926-.701 2.034-1.444 3.149-1.658 2.486-3.22 5.079-4.73 7.586l-1.124 1.86c-1.553 2.562-3.314 5.466-3.314 9.109 0 4.167 1.826 8.029 5 10.699v4.968l-2.8 3.733c-.263.35-.268.829-.012 1.185.255.354.714.499 1.127.364l.705-.235c1.056-.351 2.198-.081 2.984.705l.288.288c.196.195.452.293.708.293s.512-.098.707-.293l.288-.288c.786-.787 1.926-1.059 2.985-.704l.704.234c.279.092.572.043.815-.099.243.142.536.191.816.099l.705-.235c1.057-.351 2.198-.081 2.984.705l.288.288c.196.195.452.293.708.293s.512-.098.707-.293l.288-.288c.786-.787 1.926-1.059 2.985-.704l.704.234c.413.136.872-.01 1.127-.364.256-.355.251-.835-.012-1.185l-2.799-3.733v-4.318c4.144-2.902 7.419-8.264 5.671-14.097zm-18.386-20.542c-.894.406-1.91.373-2.755-.048l3.177-3.177c.14-.14.234-.317.273-.511l.653-3.266c.26.102.553.094.813-.036l1.028-.514 1.425 3.563c-.365.669-1.02 1.762-1.607 2.35-.114.116-.671.574-3.007 1.639zm4.215 42.376-3.5-3.5v-2.17c1.292.385 2.631.584 4 .584.994 0 1.998-.13 3-.372v1.958zm5.5.544c-.654-.521-1.417-.859-2.218-.998l1.925-1.925c.188-.187.293-.441.293-.707v-8h-2v3.556c-2.399.68-4.796.537-7-.248v-3.308h-2v8c0 .266.105.52.293.707l1.925 1.925c-.801.139-1.563.477-2.218.998-.779-.621-1.713-.982-2.681-1.056l1.481-1.974c.13-.173.2-.383.2-.6v-9h-2v.914c-1.917-2.171-3-4.951-3-7.914 0-2.856 1.311-5.245 3.024-8.071l1.126-1.865c1.499-2.487 3.049-5.061 4.682-7.509 1.414-2.121 1.904-4.231 2.075-5.465.425-.268.658-.462.8-.605 1.103-1.102 2.144-3.172 2.188-3.26.128-.256.14-.554.034-.818l-2-5c-.104-.26-.312-.464-.573-.563-.263-.1-.552-.085-.803.04l-1.355.678-.108-.108.096-.461c.363-1.734 1.912-2.993 3.683-2.993 1.86 0 3.462 1.389 3.725 3.23.262 1.831.24 3.684-.063 5.506l-.053.316c-.448 2.689-1.207 9.508 1.429 14.705.758 1.494 1.705 2.873 2.621 4.206.249.361.497.723.742 1.086.986 1.466 1.971 3.06 2.485 4.776 1.298 4.332-.786 8.396-3.755 10.989v-1.814h-2v9c0 .217.07.427.2.6l1.48 1.976c-.967.071-1.901.433-2.68 1.054z"/><path d="m23.792 40.378-.085-.085-1.414 1.414.085.085c1.566 1.566 3.7 2.422 5.875 2.422.664 0 1.333-.079 1.989-.244l-.484-1.939c-2.132.529-4.416-.102-5.966-1.653z"/><path d="m41.438 38.58c-1.697 1.389-4.033 1.79-6.1 1.051l-.676 1.883c.902.323 1.845.481 2.782.481 1.891 0 3.765-.644 5.261-1.868z"/><path d="m34.722 33.696c-2.09.675-4.412.194-6.063-1.247l-1.316 1.506c1.525 1.332 3.484 2.04 5.467 2.04.849 0 1.703-.13 2.528-.396z"/></svg>