<svg id="Layer_1" enable-background="new 0 0 512.026 512.026" height="512" viewBox="0 0 512.026 512.026" width="512" xmlns="http://www.w3.org/2000/svg"><g><g><path d="m243.381 428.085c-13.479 0-25.468-3.487-35.817-10.441-23.063-15.499-30.235-43.052-32.458-58.096-1.205-8.153 4.395-15.751 12.539-17.015l70.17-10.888c4.319-.671 8.715.577 12.039 3.415 6.349 5.42 37.691 33.845 31.198 61.21-2.331 9.823-10.316 22.811-35.127 28.902-7.913 1.943-15.436 2.913-22.544 2.913z" fill="#ffc247"/></g><path d="m269.854 335.06c-3.324-2.838-7.72-4.086-12.039-3.415l-19.377 3.007v93.272c1.625.107 3.273.161 4.944.161 7.107 0 14.631-.97 22.544-2.913 24.811-6.091 32.796-19.079 35.127-28.902 6.492-27.365-24.85-55.79-31.199-61.21z" fill="#ff8e00"/><g><path d="m273.065 189.855c-.798 0-1.601-.063-2.401-.193l-92.61-15.012c-4.903-.795-9.096-3.966-11.194-8.468-2.1-4.502-1.833-9.752.71-14.019 3.849-6.456 38.857-63.214 82.36-67.916 12.126-1.312 30.189.977 47.378 19.321 8.03 8.57 19.276 27.335 4.373 56.723-7.047 13.897-16.858 24.008-17.954 25.115-2.841 2.869-6.69 4.449-10.662 4.449z" fill="#ffc247"/></g><path d="m249.929 84.246c-3.905.422-7.74 1.27-11.491 2.456v97.735l32.226 5.224c.801.13 1.604.193 2.401.193 3.972 0 7.821-1.58 10.661-4.449 1.096-1.107 10.907-11.218 17.954-25.115 14.903-29.388 3.657-48.153-4.373-56.723-17.188-18.344-35.252-20.633-47.378-19.321z" fill="#ff8e00"/><g><path d="m407.938 246.849c7.444 6.036 7.444 17.408 0 23.443-12.923 10.478-34.291 26.594-61.264 42.518-7.591 4.482-34.965-14.449-34.965-14.449s-9.318 37.647-20.121 42.103c-30.563 12.607-64.494 21.947-99.486 23.289-2.866.11-31.697-25.609-31.697-25.609s-21.196 22.114-40.073 16.157c-64.354-20.31-103.46-67.307-117.493-86.902-3.784-5.284-3.784-12.372 0-17.655 14.617-20.41 56.436-70.549 125.654-89.294 16.729-4.53 29.956 6.956 29.956 6.956s28.334-14.164 29.98-14.128c33.125.734 65.376 8.755 94.806 20.072 13.8 5.306 33.235 30.121 33.235 30.121s19.62-5.273 25.962-1.615c28.975 16.712 51.912 33.971 65.506 44.993z" fill="#ff8e00"/></g><g><path d="m192.157 363.744c-2.89.117-5.78.171-8.67.171-23.227 0-44.279-3.658-63.155-9.619 35.171-54.293 40.013-133.679 8.158-193.848 16.733-4.532 35.065-7.231 54.997-7.231 1.696 0 3.381.021 5.076.064 28.175 68.775 27.45 163.443 3.594 210.463z" fill="#f0f0f0"/></g><path d="m407.937 246.849c-13.581-11.012-36.491-28.25-65.432-44.949-7.002-4.04-26.036 1.57-26.036 1.57s-20.17-25.091-33.174-30.094c-14.356-5.523-29.384-10.262-44.857-13.755v197.9c18.48-4.171 36.324-10.121 53.149-17.06 10.396-4.288 20.122-42.1 20.122-42.1s27.079 19.105 35.022 14.414c26.946-15.913 48.293-32.013 61.207-42.483 7.444-6.036 7.444-17.408-.001-23.443z" fill="#ff4d05"/><path d="m475.902 258.567c4.134-2.646 8.098-5.741 11.74-9.383 27.606-27.606 24.343-73.419 24.19-75.355-.579-7.355-6.422-13.197-13.776-13.776-1.939-.152-47.748-3.418-75.356 24.19-25.686 25.687-24.256 74.329-24.256 74.329s-1.43 48.642 24.256 74.329c21.947 21.946 55.399 24.383 69.167 24.383 3.551 0 5.792-.162 6.189-.193 7.354-.579 13.197-6.421 13.776-13.776.152-1.937 3.416-47.749-24.19-75.356-3.643-3.646-7.605-6.746-11.74-9.392z" fill="#ff8e00"/><g><g><path d="m93.334 253.231c7.846 0 15.363-6.899 15-15-.364-8.127-6.591-15-15-15-7.846 0-15.363 6.899-15 15 .364 8.127 6.591 15 15 15z" fill="#414952"/></g></g><g><path d="m346.674 312.8c-16.487 9.737-35.065 19.399-55.092 27.664 0 0-16.274-97.441-8.393-167.133 21.489 8.265 41.485 18.279 59.22 28.517-.001-.001-7.509 56.371 4.265 110.952z" fill="#e8e4dc"/></g></g></svg>