<svg id="Capa_1" enable-background="new 0 0 512 512" height="512" viewBox="0 0 512 512" width="512" xmlns="http://www.w3.org/2000/svg"><g><g><path d="m489.997 387.382h-467.994l-3.351 71.83v28.579c0 9.254 7.502 16.756 16.756 16.756h184.154v-19.879c0-20.124 16.314-36.438 36.438-36.438 20.124 0 36.438 16.314 36.438 36.438v19.879h184.154c9.254 0 16.756-7.502 16.756-16.756v-27.462z" fill="#dd5790"/></g><g><path d="m266.364 209.774h-20.728c-103.758 0-187.871 84.113-187.871 187.871v18.152c0 2.761 2.239 5 5 5h386.47c2.761 0 5-2.239 5-5v-18.152c0-103.758-84.113-187.871-187.871-187.871z" fill="#86f1a7"/></g><g><path d="m267.539 209.774h-23.078c-6.871 0-13.651.382-20.329 1.106 93.545 10.132 166.366 89.351 166.366 185.59v19.359c0 2.744-2.225 4.969-4.969 4.969h63.737c2.744 0 4.969-2.225 4.969-4.969v-19.359c0-103.109-83.587-186.696-186.696-186.696z" fill="#78d090"/></g><g><g><g><path d="m442.961 387.382v100.409c0 9.254-7.502 16.756-16.756 16.756h50.387c9.254 0 16.756-7.502 16.756-16.756v-26.741l-3.351-73.668z" fill="#da387d"/></g></g></g><g><path d="m249.6 275.97-63.632 32.023c-5.287 2.661-11.524-1.183-11.524-7.101v-73.155z" fill="#dae7ef"/></g><g><path d="m233.209 265.45-58.764 29.573v5.868c0 5.919 6.237 9.762 11.524 7.101l63.631-32.022z" fill="#c1d5e4"/></g><g><path d="m262.4 275.97 63.632 32.023c5.287 2.661 11.524-1.183 11.524-7.101v-73.155z" fill="#dae7ef"/></g><g><path d="m320.283 238.822v62.07c0 1.38-.349 2.639-.936 3.737l6.685 3.364c5.287 2.661 11.524-1.182 11.524-7.101v-73.155z" fill="#c1d5e4"/></g><g><path d="m152.991 161.376c11.669 19.439 10.113 41.809-3.474 49.965s-34.061-.99-45.73-20.429-7.421-37.323 6.167-45.479c13.587-8.156 31.369-3.495 43.037 15.943z" fill="#ffcbbe"/></g><g><path d="m359.009 161.376c-11.669 19.439-10.113 41.809 3.474 49.965s34.061-.99 45.73-20.429 7.421-37.323-6.167-45.479-31.369-3.495-43.037 15.943z" fill="#ffcbbe"/></g><g><path d="m375.096 154.262c0 65.775-61.768 127.304-119.096 127.304s-119.096-61.529-119.096-127.304 53.321-105.937 119.096-105.937 119.096 40.162 119.096 105.937z" fill="#ffcbbe"/></g><g><path d="m316.596 61.414c16.483 17.658 26.357 41.208 26.357 69.504 0 65.775-61.768 127.304-119.096 127.304-15.119 0-30.546-4.283-45.068-11.791 22.08 21.41 50.139 35.135 77.211 35.135 57.328 0 119.097-61.529 119.097-127.304 0-43.647-23.484-76.009-58.501-92.848z" fill="#eaac9d"/></g><g><path d="m359.009 161.376c-11.669 19.439-10.113 41.809 3.474 49.965s34.061-.99 45.73-20.429 7.421-37.323-6.167-45.479-31.369-3.495-43.037 15.943z" fill="#eaac9d"/></g><g><path d="m195.125 81.27c-12.706-18.073-11.066-42.565 3.935-58.783 13.515-14.611 34.785-19.093 53.047-11.178l37.674 16.328c14.665 6.356 31.494 5.264 45.214-2.934l15.599-9.32c4.973-2.971 10.898 2.016 8.818 7.423l-8.64 22.467c-9.571 24.887-33.481 41.309-60.145 41.309h-85.275c-4.07 0-7.886-1.982-10.227-5.312z" fill="#c67d66"/></g><g><path d="m350.594 15.382-15.599 9.321c-1.365.815-2.768 1.54-4.189 2.215-10.463 22.721-33.248 37.472-58.514 37.472h-84.595c1.302 5.925 3.765 11.67 7.428 16.88 2.341 3.33 6.157 5.312 10.227 5.312h85.275c26.664 0 50.574-16.422 60.145-41.309l8.64-22.468c2.08-5.407-3.845-10.394-8.818-7.423z" fill="#be694f"/></g><g><path d="m482.177 370.001h-3.181c-30.438 0-60.818-3.784-90.099-12.095-15.013-4.261-30.704-6.523-46.852-6.523-30.865 0-60.061 8.257-86.045 22.952v73.894c14.944 0 27.779 9 33.401 21.871 16.755-5.395 34.404-8.303 52.644-8.303 16.148 0 31.839 2.262 46.852 6.523 29.281 8.311 59.661 12.095 90.099 12.095h3.181c6.169 0 11.171-5.001 11.171-11.171v-88.074c0-6.168-5.001-11.169-11.171-11.169z" fill="#dae7ef"/></g><g><path d="m256 448.23v-73.894c-25.984-14.695-55.18-22.952-86.045-22.952-16.148 0-31.839 2.262-46.852 6.523-29.281 8.311-59.661 12.095-90.099 12.095h-3.181c-6.169 0-11.171 5.001-11.171 11.171v88.074c0 6.169 5.001 11.171 11.171 11.171h3.181c30.438 0 60.818-3.784 90.099-12.095 15.013-4.261 30.704-6.523 46.852-6.523 18.24 0 35.889 2.908 52.644 8.303 5.622-12.874 18.457-21.873 33.401-21.873z" fill="#dae7ef"/></g><g><path d="m482.177 370.001h-3.181c-12.042 0-24.075-.603-36.035-1.834v56.803c0 1.971-1.713 3.518-3.672 3.295-17.022-1.94-33.883-5.177-50.393-9.863-15.013-4.261-30.704-6.523-46.852-6.523-30.865 0-60.061 8.257-86.045 22.952v13.399c14.944 0 27.779 9 33.401 21.871 16.755-5.395 34.404-8.303 52.644-8.303 16.148 0 31.839 2.262 46.852 6.523 29.281 8.311 59.661 12.095 90.099 12.095h3.181c6.169 0 11.171-5.001 11.171-11.171v-88.074c.001-6.169-5-11.17-11.17-11.17z" fill="#c1d5e4"/></g><g><path d="m256 448.23v-73.894c-15.677-8.866-32.529-15.369-50.205-19.148v56.455c0 2.065-1.872 3.638-3.901 3.253-10.395-1.975-21.061-3.016-31.939-3.016-16.148 0-31.839 2.262-46.852 6.523-29.281 8.311-59.661 12.095-90.099 12.095h-14.352v38.748c0 6.169 5.001 11.171 11.171 11.171h3.181c30.438 0 60.818-3.784 90.099-12.095 15.013-4.261 30.704-6.523 46.852-6.523 18.24 0 35.889 2.908 52.644 8.303 5.622-12.873 18.457-21.872 33.401-21.872z" fill="#c1d5e4"/></g><g><path d="m243.26 310.246c0 7.036 5.704 12.74 12.74 12.74s12.74-5.704 12.74-12.74-5.704-12.74-12.74-12.74-12.74 5.704-12.74 12.74z"/><circle cx="303.143" cy="164.945" r="13.679"/><circle cx="208.857" cy="164.945" r="13.679"/><path d="m482.177 362.548h-3.182c-6.855 0-13.648-.208-20.377-.6-3.08-17.16-8.452-33.792-16.016-49.52-1.784-3.711-6.238-5.272-9.947-3.487-3.71 1.784-5.271 6.237-3.486 9.946 6.407 13.324 11.111 27.35 14.039 41.811-18.042-1.887-35.532-5.209-52.277-9.962-15.915-4.516-32.363-6.807-48.886-6.807-30.102 0-59.025 7.383-86.045 21.917-27.02-14.534-55.943-21.917-86.045-21.917-16.523 0-32.971 2.29-48.887 6.807-16.741 4.752-34.226 8.074-52.264 9.961 10.634-52.479 44.418-97.666 92.1-122.828 1.955 2.422 3.979 4.797 6.088 7.106v55.917c0 5.386 2.738 10.288 7.323 13.114 4.592 2.83 10.204 3.062 15.004.645l53.004-26.674c4.589.688 9.158 1.042 13.677 1.042 4.534 0 9.107-.353 13.691-1.036l52.99 26.668c9.758 5.316 22.688-2.641 22.327-13.759v-55.92c2.113-2.316 4.144-4.684 6.094-7.098 24.182 12.777 45.396 31.137 61.524 53.325 1.459 2.006 3.73 3.071 6.035 3.071 1.519 0 3.053-.464 4.376-1.426 3.33-2.42 4.067-7.081 1.646-10.411-17.036-23.437-39.314-42.935-64.71-56.722 1.227-1.87 2.407-3.759 3.541-5.668 3.195 1.166 6.586 1.761 10.106 1.761 4.989 0 10.226-1.173 15.487-3.524 10.018-4.476 19.073-12.833 25.495-23.532 6.479-10.792 9.021-21.862 7.352-32.015-1.651-10.046-7.359-18.459-16.073-23.689-7.624-4.578-16.373-5.935-24.863-4.036-4.184-25.855-16.906-48.265-36.963-64.87 5.789-6.405 10.478-13.882 13.673-22.189l8.64-22.468c2.105-5.475.566-11.453-3.921-15.23-4.488-3.777-10.641-4.274-15.676-1.265l-15.599 9.32c-11.631 6.949-25.997 7.881-38.428 2.493l-37.673-16.329c-21.132-9.159-45.841-3.953-61.482 12.957-11.226 12.137-15.958 28.491-13.882 44.166-26.988 17.063-43.843 42.611-48.751 73.392-8.477-1.896-17.194-.529-24.837 4.058-8.714 5.231-14.422 13.644-16.073 23.69-1.669 10.153.873 21.223 7.352 32.015 6.422 10.698 15.477 19.056 25.496 23.532 5.261 2.35 10.498 3.524 15.487 3.524 3.519 0 6.911-.595 10.106-1.761 1.135 1.911 2.324 3.796 3.548 5.662-51.895 28.127-88.254 78.309-98.659 136.244-6.727.392-13.517.6-20.371.6h-3.182c-10.269 0-18.624 8.355-18.624 18.623v106.62c0 13.349 10.86 24.209 24.209 24.209h184.154c4.116 0 7.453-3.336 7.453-7.453v-19.88c0-1.998.203-3.949.59-5.834 2.707-13.196 14.41-23.15 28.395-23.15 13.984 0 25.687 9.955 28.395 23.15.387 1.885.59 3.836.59 5.834v19.88c0 4.117 3.337 7.453 7.453 7.453h184.154c13.349 0 24.209-10.86 24.209-24.209v-106.62c0-10.269-8.354-18.624-18.624-18.624zm-299.559-61.212c-.093.046-.248.124-.484-.021-.236-.146-.236-.319-.236-.423v-41.634c.1.084.196.172.296.256 12.092 10.062 25.12 17.731 38.369 22.727zm147.484-.445c0 .104 0 .278-.236.423-.235.146-.391.067-.484.021l-37.912-19.08c13.418-5.048 26.539-12.814 38.632-22.966zm52.448-146.629c0-1.418-.032-2.825-.079-4.228 5.375-1.734 10.878-1.129 15.739 1.79 4.968 2.982 8.093 7.591 9.036 13.326 1.088 6.62-.788 14.203-5.424 21.925-4.864 8.104-11.54 14.353-18.795 17.594-2.825 1.262-7.644 2.853-12.432 1.907 7.777-16.917 11.955-34.799 11.955-52.314zm-178.018-126.714c11.349-12.27 29.277-16.047 44.611-9.401l37.673 16.328c16.821 7.29 36.262 6.027 52.001-3.374l12.229-7.307-7.231 18.803c-8.403 21.851-29.778 36.532-53.188 36.532h-85.275c-1.642 0-3.186-.803-4.13-2.146-10.613-15.097-9.221-35.887 3.31-49.435zm-64.833 152.215c-3.941 1.191-6.17 5.35-4.979 9.29 1.795 5.942 4.051 11.795 6.686 17.523-4.788.947-9.609-.644-12.433-1.906-7.255-3.241-13.93-9.49-18.795-17.594-4.636-7.723-6.511-15.305-5.423-21.925.943-5.735 4.068-10.344 9.036-13.326 4.873-2.926 10.36-3.523 15.735-1.788-.046 1.4-.075 2.808-.075 4.226 0 4.117 3.337 7.453 7.453 7.453s7.453-3.336 7.453-7.453c0-32.519 14.009-59.795 39.623-77.605 1.382 3.081 3.056 6.065 5.049 8.899 3.733 5.309 9.836 8.479 16.324 8.479h85.275c15.424 0 30.143-5.06 42.201-13.814 22.496 17.8 34.815 43.883 34.815 74.04 0 59.366-56.344 119.851-111.643 119.851-44.117 0-92.122-40.091-107.01-89.37-1.192-3.941-5.355-6.168-9.292-4.98zm108.848 261.649c-12.28 2.141-22.856 9.351-29.392 19.45-.08.114-.167.214-.243.334-15.987-4.549-32.426-6.851-48.957-6.851-16.526 0-32.975 2.29-48.887 6.807-8.371 2.376-17.038 4.422-25.762 6.085-4.044.77-6.697 4.673-5.927 8.716s4.671 6.7 8.716 5.927c9.153-1.743 18.251-3.892 27.043-6.388 14.588-4.141 29.667-6.24 44.817-6.24 14.579 0 29.084 1.962 43.223 5.827-.727 3.111-1.058 6.293-1.068 9.589v12.427h-176.702c-5.13 0-9.347-4.099-9.347-9.608 0 0 1.595.382 3.761.382 0 0 23.869-.435 33.929-1.293 4.101-.349 7.143-3.958 6.793-8.059-.35-4.102-3.958-7.157-8.06-6.793-9.64.822-32.663 1.238-32.663 1.238-2.05 0-3.718-1.667-3.718-3.717v-88.074c0-2.05 1.668-3.717 3.718-3.717h3.182c32.196 0 63.195-4.165 92.133-12.379 14.592-4.141 29.67-6.24 44.817-6.24 27.458 0 53.876 6.694 78.592 19.906v62.671zm44.256 19.384c-6.538-10.065-17.099-17.248-29.35-19.384v-62.671c24.716-13.212 51.134-19.906 78.592-19.906 15.147 0 30.225 2.099 44.817 6.24 28.939 8.214 59.938 12.379 92.134 12.379h3.182c2.05 0 3.718 1.667 3.718 3.717v88.074c0 2.05-1.668 3.717-3.718 3.717h-3.182c-30.822 0-60.451-3.974-88.064-11.811-15.912-4.516-32.36-6.807-48.887-6.807-16.531 0-32.97 2.303-48.957 6.851-.089-.14-.191-.264-.285-.399zm193.092 26.995c0 5.13-4.173 9.303-9.303 9.303h-176.701v-12.427c-.01-3.296-.341-6.478-1.068-9.589 14.138-3.865 28.643-5.827 43.223-5.827 15.15 0 30.228 2.099 44.817 6.24 28.937 8.214 59.936 12.378 92.134 12.378 0 0 5.669-.121 6.898-.376z"/></g><g><path d="m256 231.358c-11.681 0-23.126-4.046-32.227-11.392-3.223-2.602-3.727-7.323-1.125-10.547s7.324-3.727 10.547-1.125c6.535 5.275 14.421 8.063 22.805 8.063s16.27-2.788 22.805-8.063c3.223-2.603 7.945-2.098 10.547 1.125 2.602 3.224 2.098 7.945-1.125 10.547-9.101 7.346-20.546 11.392-32.227 11.392z"/></g></g></svg>