<?xml version="1.0" encoding="iso-8859-1"?>
<!-- Generator: Adobe Illustrator 19.0.0, SVG Export Plug-In . SVG Version: 6.00 Build 0)  -->
<svg version="1.1" id="Capa_1" xmlns="http://www.w3.org/2000/svg" xmlns:xlink="http://www.w3.org/1999/xlink" x="0px" y="0px"
	 viewBox="0 0 511.999 511.999" style="enable-background:new 0 0 511.999 511.999;" xml:space="preserve">
<path style="fill:#FFDC6C;" d="M410.554,398.055L214.036,121.664c-6.237-8.771-9.588-19.267-9.588-30.03v-8.639l-56.905,18.173
	v0.585c0,18.85-5.53,37.186-15.347,53.278c-7.651,12.544-12.09,27.261-12.17,43.011c-0.137,27.037,12.826,51.345,32.931,66.77
	l0.003-0.003l154.196,100.449l-18.686-52.857l114.342,92.914C407.651,409.247,414.167,403.137,410.554,398.055z"/>
<path style="fill:#FFAF5F;" d="M51.377,314.986h38.341c17.373,0,34.035,6.901,46.319,19.186l10.683,10.683
	c30.612,29.687,62.603,44.925,78.947,51.367c30.95,12.197,60.691,16.273,86.632,16.273h144.806c4.179,0,7.566-3.388,7.566-7.566
	V381.58c0-4.203-3.418-7.601-7.621-7.566c-41.153,0.34-174.904,2.197-216.964-14.379c-13.614-5.365-40.287-18.086-65.99-43.011
	l-6.779-6.779c-18.117-18.117-42.689-32.679-68.31-32.679h-47.63c-2.236,0-4.049,1.813-4.049,4.049v29.723
	C47.328,313.173,49.141,314.986,51.377,314.986z"/>
<path style="fill:#F48F56;" d="M51.377,290.485h47.631c25.621,0,50.193,14.562,68.31,32.679l6.779,6.779
	c25.702,24.925,52.376,37.647,65.99,43.011c42.06,16.576,175.811,14.719,216.964,14.379c4.203-0.035,7.621,3.363,7.621,7.566v-13.32
	c0-4.203-3.418-7.601-7.621-7.566c-41.153,0.34-174.904,2.197-216.964-14.379c-13.614-5.365-40.287-18.086-65.99-43.011
	l-6.779-6.779c-18.117-18.117-42.689-32.679-68.31-32.679H51.377c-2.236,0-4.049,1.813-4.049,4.049v13.32
	C47.328,292.298,49.141,290.485,51.377,290.485z"/>
<path style="fill:#FFDC6C;" d="M111.365,58.062c0-27.751,19.91-50.378,47.66-50.378s50.247,22.497,50.247,50.247v5.411
	c0,23.448-19.008,42.456-42.456,42.456s-40.466-21.342-40.466-44.79L111.365,58.062z"/>
<path style="fill:#FFAF5F;" d="M161.775,126.586c13.222,0,23.941-10.719,23.941-23.941V88.977l-38.173,12.191v0.585
	c0,8.433-1.115,16.761-3.217,24.833H161.775z"/>
<path style="fill:#FFFFFF;" d="M111.365,57.864c0-23.577,16.915-42.8,40.492-42.8s42.689,19.113,42.689,42.689v4.597
	c0,47.969-41.586,41.252-41.586,41.252s-6.955-7.13-11.993-10.449c-10.336-6.81-14.83-20.267-14.83-33.659L111.365,57.864z"/>
<path style="fill:#464655;" d="M108.778,57.932c0,6.524,1.244,12.758,3.506,18.478c0.347,0.878,1.57,0.927,1.987,0.08
	c0.932-1.894,2.153-4.018,3.754-6.217c2.182-2.997,4.443-5.274,6.335-6.93c0.003,3.673,0.474,14.429,8.066,24.892
	c5.073,6.992,12.229,12.376,20.555,15.246c2.827-16.095,5.086-34.276,6.045-54.248c0.714-14.881,0.612-28.786,0-41.548
	C131.275,7.685,108.778,30.181,108.778,57.932z"/>
<path style="fill:#35363F;" d="M152.981,103.481c2.827-16.095,5.086-34.276,6.045-54.248c-5.044,0-9.915,0.743-14.508,2.126
	c-9.055,2.726-17.248,9.763-20.157,11.984c0.003,3.673,0.474,14.429,8.066,24.892C137.499,95.227,144.655,100.611,152.981,103.481z"
	/>
<path style="fill:#1AA5E2;" d="M394.143,491.29l-49.719-133.422l-71.129-57.799l103.363,198.985
	C382.198,509.72,398.34,502.553,394.143,491.29z"/>
<path style="fill:#26C4C4;" d="M410.554,398.055c3.613,5.082-2.903,11.192-7.742,7.26L184.355,227.796l-4.835-3.927
	c-11.247-8.829-18.472-22.548-18.472-37.956c0-26.634,21.591-48.225,48.225-48.225c6.659,0,13.002,1.349,18.771,3.79"/>
<path d="M464.672,404.81h-45.934c1.092-3.705,0.492-7.815-1.92-11.208l-8.309-11.686c2.829,0.009,5.616,0.015,8.318,0.015
	c13.994,0,26.159-0.108,35.228-0.189c5.379-0.048,9.673-0.086,12.618-0.086c4.245,0,7.685-3.441,7.685-7.685
	s-3.44-7.685-7.685-7.685c-2.977,0-7.317,0.039-12.755,0.087c-13.002,0.115-32.403,0.287-54.379,0.113l-16.385-23.045
	c-2.46-3.458-7.256-4.27-10.716-1.81c-3.459,2.46-4.27,7.257-1.81,10.716l25.741,36.202l-116.157-94.39
	c-0.01-0.009-0.021-0.017-0.031-0.026l-93.812-76.232c-0.022-0.018-0.045-0.032-0.067-0.049c-0.012-0.01-0.023-0.021-0.035-0.031
	c-9.871-7.749-15.533-19.38-15.533-31.911c0-16.193,9.607-30.809,24.474-37.234c3.895-1.684,5.689-6.207,4.005-10.103
	c-1.683-3.894-6.204-5.692-10.103-4.005c-20.5,8.859-33.746,29.013-33.746,51.342c0,17.228,7.759,33.216,21.288,43.897
	c0.008,0.007,0.016,0.015,0.024,0.022l0.087,0.071c0.005,0.003,0.008,0.007,0.013,0.011l0.001,0.001l92.433,75.111l19.658,37.843
	l-5.926-3.861c-3.554-2.315-8.317-1.312-10.634,2.244c-2.316,3.556-1.312,8.317,2.244,10.634l14.47,9.426
	c-20.147-2.255-34.942-5.211-44.117-8.827c-3.259-1.284-7.299-3.008-11.909-5.244v-22.426l15.63,10.182
	c1.295,0.844,2.749,1.247,4.188,1.247c2.512,0,4.973-1.23,6.446-3.491c2.316-3.556,1.312-8.317-2.244-10.634l-97.646-63.61
	c-18.695-14.475-29.775-37.038-29.656-60.427c0.07-13.814,3.889-27.316,11.045-39.048c8.916-14.616,14.342-30.699,15.953-47.036
	c3.879,0.966,7.933,1.486,12.107,1.486c11.689,0,22.448-4.032,30.984-10.763c1.579,8.379,4.945,16.325,9.972,23.396l143.97,202.485
	c1.499,2.108,3.866,3.232,6.27,3.232c1.54,0,3.095-0.462,4.446-1.422c3.459-2.459,4.27-7.257,1.81-10.716l-143.97-202.484
	c-5.341-7.514-8.165-16.358-8.165-25.577v-6.853c3.09-6.504,4.825-13.771,4.825-21.438v-5.41C216.958,25.989,190.97,0,159.026,0
	c-0.119,0-0.237,0.008-0.356,0.009c-0.004,0-0.008,0-0.012,0c-0.002,0-0.003,0-0.005,0c-31.772,0.202-57.559,26.104-57.559,57.923
	c0,8.347,1.739,16.406,5.169,23.953c1.757,3.863,6.307,5.574,10.176,3.816c1.75-0.795,3.058-2.165,3.801-3.784
	c3.905,9.756,10.793,18.007,19.527,23.625c-0.674,15.719-5.52,31.369-14.133,45.488c-8.612,14.12-13.209,30.363-13.293,46.973
	c-0.143,28.277,13.291,55.532,35.938,72.906c0.223,0.171,0.454,0.329,0.692,0.473l31.607,20.589v20.215
	c-0.363-0.347-0.727-0.688-1.091-1.04l-6.737-6.737c-30.392-30.392-59.248-34.93-73.744-34.93h-51.68
	c-4.245,0-7.685,3.441-7.685,7.685s3.44,7.685,7.685,7.685h51.68c20.621,0,43.539,11.09,62.876,30.428l6.779,6.779
	c0.028,0.028,0.056,0.056,0.084,0.083c1.285,1.246,2.573,2.454,3.862,3.642c-6.937,4.445-12.006,11.558-13.737,19.885
	c-2.256-2.02-4.511-4.109-6.759-6.287l-10.641-10.642c-13.825-13.824-32.204-21.437-51.754-21.437h-42.39
	c-4.245,0-7.685,3.441-7.685,7.685s3.44,7.685,7.685,7.685h42.39c15.445,0,29.964,6.015,40.885,16.935l10.683,10.683
	c0.028,0.028,0.056,0.056,0.084,0.083c31.571,30.616,64.601,46.348,81.48,53c28.3,11.153,58.395,16.808,89.449,16.808h14.728
	l42.812,82.416c3.124,6.015,8.867,9.404,15.051,9.404c2.402,0,4.873-0.512,7.28-1.581c8.601-3.819,12.46-12.993,9.174-21.813
	l-25.499-68.426h88.827c4.245,0,7.685-3.441,7.685-7.685S468.917,404.81,464.672,404.81z M147.065,91.937
	c-8.618-5.972-14.423-15.729-14.975-26.85c4.505-2.765,9.555-4.838,14.644-6.37c1.342-0.404,2.709-0.716,4.086-0.984
	C150.029,69.158,148.772,80.601,147.065,91.937z M201.589,57.932v5.41c0,19.173-15.599,34.771-34.772,34.771
	c-1.728,0-3.425-0.131-5.086-0.376c2.529-15.924,4.201-32.083,4.971-48.137c0.533-11.095,0.637-22.315,0.327-33.466
	C186.684,19.891,201.589,37.199,201.589,57.932z M151.649,16.023c0.251,8.657,0.241,17.356-0.034,26.005
	c-3.155,0.403-6.27,1.056-9.313,1.972c-9.976,3.003-18.842,8.61-25.781,16.102c-0.036-0.72-0.058-1.443-0.058-2.17
	C116.463,36.98,131.686,19.527,151.649,16.023z M215.626,314.802v24.104c-6.016-3.616-12.461-7.927-19.066-13.012
	c-0.165-0.447-0.37-0.873-0.611-1.276v-22.635L215.626,314.802z M173.589,352.013c0-7.305,4.999-13.447,11.75-15.232
	c0.115,0.047,0.234,0.087,0.352,0.129c6.828,5.35,13.52,9.933,19.824,13.825c-6.439,4.93-10.9,12.31-11.985,20.737
	c-6.839-4.195-14.09-9.112-21.495-14.839C173.006,355.345,173.589,353.749,173.589,352.013z M312.299,404.81
	c-29.117,0-57.315-5.295-83.814-15.738c-5.425-2.138-12.633-5.28-20.959-9.645c0.699-1.158,1.108-2.509,1.108-3.96
	c0-7.305,4.999-13.447,11.751-15.231c0.902,0.372,1.889,0.58,2.925,0.58c0.144,0,0.285-0.014,0.427-0.022
	c5.254,2.569,9.855,4.54,13.532,5.989c13.519,5.328,35.824,9.157,68.092,11.687l13.682,26.339L312.299,404.81L312.299,404.81z
	 M385.933,496.372c-1.628,0.723-2.167-0.306-2.456-0.86l-44.433-85.538c-0.245-0.705-0.589-1.363-1.017-1.958l-24.101-46.397
	c-0.006-0.011-0.012-0.023-0.018-0.034l-16.729-32.206l40.773,33.132l48.99,131.462
	C387.159,494.558,387.566,495.647,385.933,496.372z M361.479,381.629l28.527,23.181h-19.889L361.479,381.629z"/>
<circle cx="181.23" cy="40.28" r="7.879"/>
<g>
</g>
<g>
</g>
<g>
</g>
<g>
</g>
<g>
</g>
<g>
</g>
<g>
</g>
<g>
</g>
<g>
</g>
<g>
</g>
<g>
</g>
<g>
</g>
<g>
</g>
<g>
</g>
<g>
</g>
</svg>
