<svg height="512" viewBox="0 0 128 128" width="512" xmlns="http://www.w3.org/2000/svg"><g><g><path d="m46 95h9v24h-9z" fill="#efeffb"/><path d="m42.333 112.5h12.667a0 0 0 0 1 0 0v3a6 6 0 0 1 -6 6h-6.667a0 0 0 0 1 0 0v-9a0 0 0 0 1 0 0z" fill="#dfdfe5" transform="matrix(-1 0 0 -1 97.333 234)"/><path d="m73 95h9v24h-9z" fill="#efeffb" transform="matrix(-1 0 0 -1 155 214)"/><path d="m112.654 61.63a9.983 9.983 0 0 0 -3.822-7.857 9.985 9.985 0 0 0 -4.232-16.056 9.977 9.977 0 0 0 -4.518-10.438 13.308 13.308 0 0 0 -26.239 1.261h-19.686a13.308 13.308 0 0 0 -26.236-1.261 9.977 9.977 0 0 0 -4.521 10.438 9.985 9.985 0 0 0 -4.235 16.056 9.983 9.983 0 0 0 .244 15.9 10 10 0 0 0 8.529 11.884c0 .06-.009.118-.009.179a8.747 8.747 0 0 0 7.863 8.7 8.742 8.742 0 0 0 5.737 3.977 9.98 9.98 0 0 0 14.739 5.924 10 10 0 0 0 15.458 0 9.98 9.98 0 0 0 14.739-5.924 8.742 8.742 0 0 0 5.737-3.977 8.747 8.747 0 0 0 7.863-8.7c0-.061-.008-.119-.009-.179a10 10 0 0 0 8.529-11.884 9.983 9.983 0 0 0 4.069-8.043z" fill="#dfdfe5"/><path d="m75.847 27.639c22.437 12.661 28.007 28.039 20.523 29.154s-19.94-2.844-19.94-2.844z" fill="#d78759"/><path d="m52.153 27.639c-22.437 12.661-28.007 28.039-20.523 29.154s19.94-2.844 19.94-2.844z" fill="#d78759"/><path d="m88.67 48.79c0 16.84-10.12 34.61-22.92 36.11a15.363 15.363 0 0 1 -3.5 0c-12.8-1.5-22.92-19.27-22.92-36.11 0-17.6 11.05-27.54 24.67-27.54s24.67 9.94 24.67 27.54z" fill="#f4a86c"/><path d="m91.731 28.87a8.869 8.869 0 0 0 -4.631-10.608 8.861 8.861 0 0 0 -10.186-5.694 5.869 5.869 0 0 0 -7.539-2.563 5.871 5.871 0 0 0 -10.746 0 5.869 5.869 0 0 0 -7.539 2.563 8.861 8.861 0 0 0 -10.19 5.694 8.869 8.869 0 0 0 -4.631 10.608 5.868 5.868 0 0 0 5.622 10.288 5.868 5.868 0 0 0 9.73 1.121 8.855 8.855 0 0 0 10.025-2.148 5.856 5.856 0 0 0 4.708 0 8.855 8.855 0 0 0 10.025 2.148 5.868 5.868 0 0 0 9.73-1.121 5.869 5.869 0 0 0 5.622-10.288z" fill="#efeffb"/><path d="m73 112.5h6.667a6 6 0 0 1 6 6v3a0 0 0 0 1 0 0h-12.667a0 0 0 0 1 0 0v-9a0 0 0 0 1 0 0z" fill="#dfdfe5"/><g fill="#efeffb"><circle cx="52.153" cy="51.771" r="3"/><circle cx="75.847" cy="51.771" r="3"/></g></g><g fill="#251333"><path d="m114.4 61.63a11.679 11.679 0 0 0 -3.213-8.071 11.723 11.723 0 0 0 -4.679-16.938c.021-.289.032-.575.032-.861a11.68 11.68 0 0 0 -4.917-9.552 15.134 15.134 0 0 0 -14.294-11.2 10.66 10.66 0 0 0 -9.576-4.339 7.622 7.622 0 0 0 -7.573-2.755 7.617 7.617 0 0 0 -12.36 0 7.622 7.622 0 0 0 -7.573 2.758 10.694 10.694 0 0 0 -9.575 4.339 15.134 15.134 0 0 0 -14.295 11.2 11.68 11.68 0 0 0 -4.917 9.549c0 .286.011.572.032.861a11.723 11.723 0 0 0 -4.679 16.938 11.679 11.679 0 0 0 -3.213 8.071 11.8 11.8 0 0 0 3.936 8.77 11.74 11.74 0 0 0 8.72 12.6 10.444 10.444 0 0 0 8.523 9.052 10.528 10.528 0 0 0 5.388 3.817 11.76 11.76 0 0 0 4.083 5.354v10.7a7.745 7.745 0 0 0 -3.667 6.575v3a1.751 1.751 0 0 0 1.75 1.75h12.667a1.751 1.751 0 0 0 1.75-1.75v-18.262a11.75 11.75 0 0 0 15.355-.738 11.612 11.612 0 0 0 8.145.485v7.8c-.193-.015-.387-.03-.583-.03h-4.917v-3.253a1.75 1.75 0 0 0 -3.5 0v14a1.751 1.751 0 0 0 1.75 1.75h12.667a1.751 1.751 0 0 0 1.75-1.75v-3a7.745 7.745 0 0 0 -3.667-6.575v-10.7a11.76 11.76 0 0 0 4.083-5.354 10.528 10.528 0 0 0 5.388-3.817 10.444 10.444 0 0 0 8.523-9.054 11.74 11.74 0 0 0 8.72-12.605 11.8 11.8 0 0 0 3.936-8.765zm-30.483 58.12h-9.167v-5.5h4.917a4.255 4.255 0 0 1 4.25 4.25zm-34.667-105.625a7.2 7.2 0 0 1 1.478.155 1.751 1.751 0 0 0 1.9-.875 4.118 4.118 0 0 1 5.293-1.8 1.751 1.751 0 0 0 2.31-.893 4.121 4.121 0 0 1 7.544 0 1.751 1.751 0 0 0 2.31.893 4.118 4.118 0 0 1 5.293 1.8 1.753 1.753 0 0 0 1.9.875 7.113 7.113 0 0 1 8.178 4.572 1.745 1.745 0 0 0 .887.986 7.119 7.119 0 0 1 3.721 8.515 1.749 1.749 0 0 0 .756 2.008 4.118 4.118 0 0 1 -3.942 7.222 1.752 1.752 0 0 0 -2.323.781 4.117 4.117 0 0 1 -6.831.788 1.749 1.749 0 0 0 -2.032-.481 7.1 7.1 0 0 1 -8.045-1.726 1.749 1.749 0 0 0 -1.99-.417 4.128 4.128 0 0 1 -3.3 0 1.748 1.748 0 0 0 -1.989.417 7.1 7.1 0 0 1 -8.047 1.726 1.752 1.752 0 0 0 -2.031.481 4.117 4.117 0 0 1 -6.831-.788 1.751 1.751 0 0 0 -2.323-.781 4.075 4.075 0 0 1 -1.803.417 4.12 4.12 0 0 1 -2.148-7.639 1.75 1.75 0 0 0 .756-2.007 7.12 7.12 0 0 1 3.722-8.516 1.747 1.747 0 0 0 .886-.986 7.138 7.138 0 0 1 6.701-4.727zm40.482 27.292a7.641 7.641 0 0 0 1.2-.262c5.557 5.808 7.383 10.665 6.679 12.8a1.594 1.594 0 0 1 -1.5 1.1 25.379 25.379 0 0 1 -6.146-.013 46.017 46.017 0 0 0 .455-6.257 38.9 38.9 0 0 0 -.688-7.368zm-41.982 61.566a11.294 11.294 0 0 0 5.5.316v7.451h-4.917c-.2 0-.39.015-.583.03zm5.5 16.767h-9.167v-1.25a4.255 4.255 0 0 1 4.25-4.25h4.917zm54.3-51.487a1.749 1.749 0 0 0 -.679 1.73 8.807 8.807 0 0 1 .16 1.647 8.257 8.257 0 0 1 -7.192 8.174 1.75 1.75 0 0 0 -1.529 1.736 1.166 1.166 0 0 0 .01.18 6.963 6.963 0 0 1 -6.284 6.959 1.75 1.75 0 0 0 -1.313.818 7 7 0 0 1 -4.587 3.185 1.75 1.75 0 0 0 -1.352 1.251 8.232 8.232 0 0 1 -12.161 4.892 1.752 1.752 0 0 0 -2.241.388 8.259 8.259 0 0 1 -12.764 0 1.751 1.751 0 0 0 -2.241-.388 8.232 8.232 0 0 1 -12.161-4.892 1.75 1.75 0 0 0 -1.352-1.251 7 7 0 0 1 -4.587-3.185 1.75 1.75 0 0 0 -1.313-.818 6.952 6.952 0 0 1 -6.285-6.907c0-.048.011-.185.011-.232a1.75 1.75 0 0 0 -1.528-1.736 8.257 8.257 0 0 1 -7.192-8.174 8.807 8.807 0 0 1 .16-1.647 1.749 1.749 0 0 0 -.679-1.73 8.243 8.243 0 0 1 -.2-13.119 1.75 1.75 0 0 0 .225-2.535 8.223 8.223 0 0 1 3.494-13.234 1.751 1.751 0 0 0 1.15-1.975 8.76 8.76 0 0 1 -.16-1.637 8.21 8.21 0 0 1 3.888-7 1.754 1.754 0 0 0 .784-1.12 11.586 11.586 0 0 1 7.089-8.327 10.523 10.523 0 0 0 -2.6 6.933 10.756 10.756 0 0 0 .171 1.906 7.607 7.607 0 0 0 -.3 11.153c-.808.872-1.565 1.746-2.251 2.613a1.75 1.75 0 1 0 2.746 2.171c.769-.973 1.633-1.958 2.571-2.939a7.6 7.6 0 0 0 1.2.262 39 39 0 0 0 -.682 7.374 45.682 45.682 0 0 0 .446 6.248 25.334 25.334 0 0 1 -6.14.021 1.642 1.642 0 0 1 -1.356-.773c-.488-.844-.333-2.47.412-4.349a1.75 1.75 0 0 0 -3.254-1.29c-1.187 2.993-1.252 5.547-.19 7.388a5.1 5.1 0 0 0 3.873 2.486 22.175 22.175 0 0 0 3.256.22 37.52 37.52 0 0 0 4-.243c3.135 14.749 12.965 28.253 25.377 28.253 4.729 0 9.425-2.036 13.58-5.888a1.75 1.75 0 0 0 -2.38-2.562 17.507 17.507 0 0 1 -9.45 4.823v-8.362a5.867 5.867 0 0 0 4.427-3.813 1.75 1.75 0 0 0 -3.354-1 3.367 3.367 0 0 1 -5.646 0 1.75 1.75 0 0 0 -3.354 1 5.867 5.867 0 0 0 4.427 3.813v8.362c-12.05-1.575-21.17-19.123-21.17-34.333a35.34 35.34 0 0 1 .66-6.893 7.62 7.62 0 0 0 10.33.405 10.6 10.6 0 0 0 10.023-2.169 7.627 7.627 0 0 0 3.814 0 10.6 10.6 0 0 0 10.023 2.167 7.621 7.621 0 0 0 10.327-.4 35.288 35.288 0 0 1 .663 6.889 45.534 45.534 0 0 1 -4.236 18.855 1.75 1.75 0 1 0 3.171 1.48 49.243 49.243 0 0 0 3.513-10.619 37.679 37.679 0 0 0 4.006.235 22.119 22.119 0 0 0 3.252-.22 5.052 5.052 0 0 0 4.313-3.469c1.26-3.819-1.384-9.746-6.933-15.742a7.609 7.609 0 0 0 -.3-11.154 10.74 10.74 0 0 0 .171-1.906 10.627 10.627 0 0 0 -2.643-6.949 11.593 11.593 0 0 1 7.134 8.346 1.754 1.754 0 0 0 .784 1.12 8.21 8.21 0 0 1 3.888 7 8.76 8.76 0 0 1 -.16 1.637 1.751 1.751 0 0 0 1.15 1.978 8.223 8.223 0 0 1 3.491 13.234 1.75 1.75 0 0 0 .225 2.535 8.243 8.243 0 0 1 -.2 13.119z"/><path d="m28.926 73.866a2.251 2.251 0 0 1 -1.96-2.229 2.385 2.385 0 0 1 .046-.453 1.75 1.75 0 1 0 -3.432-.684 5.743 5.743 0 0 0 4.9 6.835 1.723 1.723 0 0 0 .225.015 1.75 1.75 0 0 0 .22-3.486z"/><path d="m82.723 71.466a1.749 1.749 0 0 0 -2.412.552c-.533.848-1.1 1.669-1.677 2.44a1.75 1.75 0 0 0 2.8 2.1c.639-.849 1.259-1.751 1.843-2.683a1.748 1.748 0 0 0 -.554-2.409z"/><path d="m52.153 47.021a4.75 4.75 0 1 0 4.75 4.75 4.756 4.756 0 0 0 -4.75-4.75zm0 6a1.25 1.25 0 1 1 1.25-1.25 1.251 1.251 0 0 1 -1.25 1.25z"/><path d="m80.6 51.771a4.75 4.75 0 1 0 -4.75 4.75 4.756 4.756 0 0 0 4.75-4.75zm-4.75 1.25a1.25 1.25 0 1 1 1.25-1.25 1.252 1.252 0 0 1 -1.253 1.25z"/></g></g></svg>